<svg xmlns="http://www.w3.org/2000/svg" viewBox="0 0 400 24">
  <!-- Left line -->
  <line x1="20" y1="12" x2="176" y2="12" stroke="#6b5a2a" stroke-width="0.5"/>
  <!-- Right line -->
  <line x1="224" y1="12" x2="380" y2="12" stroke="#6b5a2a" stroke-width="0.5"/>
  <!-- Center diamond -->
  <path d="M200 4 L208 12 L200 20 L192 12 Z" fill="none" stroke="#9a7d3a" stroke-width="0.75"/>
  <!-- Crimson center dot -->
  <circle cx="200" cy="12" r="1.8" fill="#6b1515"/>
  <!-- Left arc flourish -->
  <path d="M186 12 Q186 6 180 6" fill="none" stroke="#9a7d3a" stroke-width="0.5"/>
  <path d="M186 12 Q186 18 180 18" fill="none" stroke="#9a7d3a" stroke-width="0.5"/>
  <!-- Right arc flourish -->
  <path d="M214 12 Q214 6 220 6" fill="none" stroke="#9a7d3a" stroke-width="0.5"/>
  <path d="M214 12 Q214 18 220 18" fill="none" stroke="#9a7d3a" stroke-width="0.5"/>
  <!-- Inner flanking dots -->
  <circle cx="170" cy="12" r="1" fill="#6b5a2a"/>
  <circle cx="230" cy="12" r="1" fill="#6b5a2a"/>
  <!-- Outer flanking dots -->
  <circle cx="100" cy="12" r="1.2" fill="#6b5a2a"/>
  <circle cx="300" cy="12" r="1.2" fill="#6b5a2a"/>
  <!-- Outermost dots -->
  <circle cx="40" cy="12" r="0.8" fill="#6b5a2a" opacity="0.6"/>
  <circle cx="360" cy="12" r="0.8" fill="#6b5a2a" opacity="0.6"/>
</svg>
