<svg xmlns="http://www.w3.org/2000/svg" viewBox="0 0 400 400">
  <!-- Gothic rose / rosette watermark -->
  <g fill="none" stroke="#9a7d3a" stroke-width="1" transform="translate(200,200)">
    <!-- Outer circle -->
    <circle r="160" stroke-width="0.75"/>
    <!-- Inner circle -->
    <circle r="120" stroke-width="0.5"/>
    <!-- Core circle -->
    <circle r="40" stroke-width="0.75"/>
    <!-- Eight pointed petals -->
    <path d="M0 -40 Q20 -80 0 -120 Q-20 -80 0 -40"/>
    <path d="M0 40 Q20 80 0 120 Q-20 80 0 40"/>
    <path d="M-40 0 Q-80 20 -120 0 Q-80 -20 -40 0"/>
    <path d="M40 0 Q80 20 120 0 Q80 -20 40 0"/>
    <!-- Diagonal petals -->
    <path d="M-28 -28 Q-42 -70 -85 -85 Q-70 -42 -28 -28"/>
    <path d="M28 -28 Q42 -70 85 -85 Q70 -42 28 -28"/>
    <path d="M-28 28 Q-42 70 -85 85 Q-70 42 -28 28"/>
    <path d="M28 28 Q42 70 85 85 Q70 42 28 28"/>
    <!-- Tracery lines between petals -->
    <path d="M0 -120 Q40 -100 85 -85" stroke-width="0.5"/>
    <path d="M0 -120 Q-40 -100 -85 -85" stroke-width="0.5"/>
    <path d="M0 120 Q40 100 85 85" stroke-width="0.5"/>
    <path d="M0 120 Q-40 100 -85 85" stroke-width="0.5"/>
    <path d="M-120 0 Q-100 40 -85 85" stroke-width="0.5"/>
    <path d="M-120 0 Q-100 -40 -85 -85" stroke-width="0.5"/>
    <path d="M120 0 Q100 40 85 85" stroke-width="0.5"/>
    <path d="M120 0 Q100 -40 85 -85" stroke-width="0.5"/>
    <!-- Outer pointed arches (gothic tracery) -->
    <path d="M0 -160 Q50 -140 85 -85 Q60 -130 0 -120" stroke-width="0.5"/>
    <path d="M0 -160 Q-50 -140 -85 -85 Q-60 -130 0 -120" stroke-width="0.5"/>
    <path d="M0 160 Q50 140 85 85 Q60 130 0 120" stroke-width="0.5"/>
    <path d="M0 160 Q-50 140 -85 85 Q-60 130 0 120" stroke-width="0.5"/>
    <path d="M-160 0 Q-140 50 -85 85 Q-130 60 -120 0" stroke-width="0.5"/>
    <path d="M-160 0 Q-140 -50 -85 -85 Q-130 -60 -120 0" stroke-width="0.5"/>
    <path d="M160 0 Q140 50 85 85 Q130 60 120 0" stroke-width="0.5"/>
    <path d="M160 0 Q140 -50 85 -85 Q130 -60 120 0" stroke-width="0.5"/>
    <!-- Center ankh cross -->
    <line x1="0" y1="-30" x2="0" y2="30" stroke-width="1"/>
    <line x1="-12" y1="-8" x2="12" y2="-8" stroke-width="1"/>
    <circle cy="-22" r="8" stroke-width="0.75"/>
  </g>
</svg>
