<svg xmlns="http://www.w3.org/2000/svg" viewBox="0 0 16 16">
  <path fill="currentColor" d="M8 0C8 0 6.5 2.5 6.5 4.5C6.5 5.8 7.2 6.8 8 7.2C8.8 6.8 9.5 5.8 9.5 4.5C9.5 2.5 8 0 8 0ZM4.5 3C4.5 3 2 4 1.2 5.8C0.6 7.2 1.2 8.5 2 9.2C2.8 8.6 3.2 7.5 3.8 6.2C4.5 4.8 4.5 3 4.5 3ZM11.5 3C11.5 3 11.5 4.8 12.2 6.2C12.8 7.5 13.2 8.6 14 9.2C14.8 8.5 15.4 7.2 14.8 5.8C14 4 11.5 3 11.5 3ZM8 8L6.8 9.5C5.8 10.8 4.2 11 3 10.5L3.5 11.5C4 12.5 5 13 6 13L7.2 12.8L7.5 16H8.5L8.8 12.8L10 13C11 13 12 12.5 12.5 11.5L13 10.5C11.8 11 10.2 10.8 9.2 9.5Z"/>
</svg>
